<?xml version="1.0" encoding="us-ascii" standalone="no"?><svg xmlns="http://www.w3.org/2000/svg" xmlns:xlink="http://www.w3.org/1999/xlink" contentStyleType="text/css" height="406px" preserveAspectRatio="none" style="width:1478px;height:406px;background:#FFFFFF;" version="1.1" viewBox="0 0 1478 406" width="1478px" zoomAndPan="magnify"><defs/><g><!--entity User--><g id="elem_User"><ellipse cx="268.5" cy="223" fill="#F1F1F1" rx="8" ry="8" style="stroke:#181818;stroke-width:0.5;"/><path d="M268.5,231 L268.5,258 M255.5,239 L281.5,239 M268.5,258 L255.5,273 M268.5,258 L281.5,273 " fill="none" style="stroke:#181818;stroke-width:0.5;"/><text fill="#000000" font-family="sans-serif" font-size="14" lengthAdjust="spacing" textLength="32" x="252.5" y="287.4951">User</text></g><!--entity Jornalista--><g id="elem_Jornalista"><ellipse cx="268.5" cy="95" fill="#F1F1F1" rx="8" ry="8" style="stroke:#181818;stroke-width:0.5;"/><path d="M268.5,103 L268.5,130 M255.5,111 L281.5,111 M268.5,130 L255.5,145 M268.5,130 L281.5,145 " fill="none" style="stroke:#181818;stroke-width:0.5;"/><text fill="#000000" font-family="sans-serif" font-size="14" lengthAdjust="spacing" textLength="61" x="238" y="159.4951">Jornalista</text></g><!--entity Editor--><g id="elem_Editor"><ellipse cx="62" cy="112" fill="#F1F1F1" rx="8" ry="8" style="stroke:#181818;stroke-width:0.5;"/><path d="M62,120 L62,147 M49,128 L75,128 M62,147 L49,162 M62,147 L75,162 " fill="none" style="stroke:#181818;stroke-width:0.5;"/><text fill="#000000" font-family="sans-serif" font-size="14" lengthAdjust="spacing" textLength="40" x="42" y="176.4951">Editor</text></g><!--entity Administrador--><g id="elem_Administrador"><ellipse cx="62" cy="223" fill="#F1F1F1" rx="8" ry="8" style="stroke:#181818;stroke-width:0.5;"/><path d="M62,231 L62,258 M49,239 L75,239 M62,258 L49,273 M62,258 L75,273 " fill="none" style="stroke:#181818;stroke-width:0.5;"/><text fill="#000000" font-family="sans-serif" font-size="14" lengthAdjust="spacing" textLength="95" x="14.5" y="287.4951">Administrador</text></g><!--entity LeitorRegistado--><g id="elem_LeitorRegistado"><ellipse cx="62" cy="334" fill="#F1F1F1" rx="8" ry="8" style="stroke:#181818;stroke-width:0.5;"/><path d="M62,342 L62,369 M49,350 L75,350 M62,369 L49,384 M62,369 L75,384 " fill="none" style="stroke:#181818;stroke-width:0.5;"/><text fill="#000000" font-family="sans-serif" font-size="14" lengthAdjust="spacing" textLength="112" x="6" y="398.4951">Leitor Registado</text></g><!--entity Malicioso--><g id="elem_Malicioso"><ellipse cx="1421.5" cy="117" fill="#F1F1F1" rx="8" ry="8" style="stroke:#181818;stroke-width:0.5;"/><path d="M1421.5,125 L1421.5,152 M1408.5,133 L1434.5,133 M1421.5,152 L1408.5,167 M1421.5,152 L1434.5,167 " fill="none" style="stroke:#181818;stroke-width:0.5;"/><text fill="#000000" font-family="sans-serif" font-size="14" lengthAdjust="spacing" textLength="99" x="1372" y="181.4951">User Malicioso</text></g><!--entity Sistema--><g id="elem_Sistema"><path d="M231,16 C231,6 268.5,6 268.5,6 C268.5,6 306,6 306,16 L306,41.2969 C306,51.2969 268.5,51.2969 268.5,51.2969 C268.5,51.2969 231,51.2969 231,41.2969 L231,16 " fill="#F1F1F1" style="stroke:#181818;stroke-width:0.5;"/><path d="M231,16 C231,26 268.5,26 268.5,26 C268.5,26 306,26 306,16 " fill="none" style="stroke:#181818;stroke-width:0.5;"/><text fill="#000000" font-family="sans-serif" font-size="14" lengthAdjust="spacing" textLength="55" x="241" y="42.9951">Sistema</text></g><g id="elem_Login"><ellipse cx="1126.2231" cy="252.5485" fill="#F1F1F1" rx="37.7231" ry="14.5485" style="stroke:#181818;stroke-width:0.5;"/><text fill="#000000" font-family="sans-serif" font-size="14" lengthAdjust="spacing" textLength="37" x="1106.1116" y="255.9312">Login</text></g><g id="elem_Registar"><ellipse cx="586.1007" cy="174.715" fill="#F1F1F1" rx="52.6007" ry="14.715" style="stroke:#181818;stroke-width:0.5;"/><text fill="#000000" font-family="sans-serif" font-size="14" lengthAdjust="spacing" textLength="57" x="554.6007" y="178.4626">Registar</text></g><g id="elem_TryLogin"><ellipse cx="1126.1158" cy="146.4232" fill="#F1F1F1" rx="185.1158" ry="39.4232" style="stroke:#181818;stroke-width:0.5;"/><text fill="#000000" font-family="sans-serif" font-size="14" lengthAdjust="spacing" textLength="343" x="954.6158" y="149.2698">Tenta fazer login como um outro tipo de utilizador</text></g><g id="elem_Tentativas"><ellipse cx="585.8794" cy="53.6759" fill="#F1F1F1" rx="218.8794" ry="46.1759" style="stroke:#181818;stroke-width:0.5;"/><text fill="#000000" font-family="sans-serif" font-size="14" lengthAdjust="spacing" textLength="412" x="379.8794" y="56.5226">N&#227;o permite tentativas com menos de 1 minuto de intervalo</text></g><!--link Editor to User--><g id="link_Editor_User"><path d="M82.24,151.94 C122.71,173.91 200.0805,215.9025 236.6105,235.7325 " fill="none" id="Editor-to-User" style="stroke:#181818;stroke-width:1.0;"/><polygon fill="none" points="252.43,244.32,239.473,230.4594,233.748,241.0057,252.43,244.32" style="stroke:#181818;stroke-width:1.0;"/><text fill="#000000" font-family="sans-serif" font-size="13" lengthAdjust="spacing" textLength="51" x="149" y="186.5669">Extends</text></g><!--link Jornalista to User--><g id="link_Jornalista_User"><path d="M268.5,162.63 C268.5,179 268.5,180.08 268.5,196.44 " fill="none" id="Jornalista-to-User" style="stroke:#181818;stroke-width:1.0;"/><polygon fill="none" points="268.5,214.44,274.5,196.44,262.5,196.44,268.5,214.44" style="stroke:#181818;stroke-width:1.0;"/><text fill="#000000" font-family="sans-serif" font-size="13" lengthAdjust="spacing" textLength="51" x="231.5" y="193.0669">Extends</text></g><!--link Administrador to User--><g id="link_Administrador_User"><path d="M109.66,252.5 C155.4,252.5 204.46,252.5 234.26,252.5 " fill="none" id="Administrador-to-User" style="stroke:#181818;stroke-width:1.0;"/><polygon fill="none" points="252.26,252.5,234.26,246.5,234.26,258.5,252.26,252.5" style="stroke:#181818;stroke-width:1.0;"/><text fill="#000000" font-family="sans-serif" font-size="13" lengthAdjust="spacing" textLength="51" x="149" y="248.5669">Extends</text></g><!--link LeitorRegistado to User--><g id="link_LeitorRegistado_User"><path d="M118.07,333.61 C163.26,309.08 208.3792,284.5849 236.4092,269.3749 " fill="none" id="LeitorRegistado-to-User" style="stroke:#181818;stroke-width:1.0;"/><polygon fill="none" points="252.23,260.79,233.5475,264.1013,239.2708,274.6485,252.23,260.79" style="stroke:#181818;stroke-width:1.0;"/><text fill="#000000" font-family="sans-serif" font-size="13" lengthAdjust="spacing" textLength="51" x="149" y="288.5669">Extends</text></g><!--link User to Login--><g id="link_User_Login"><path d="M284.71,252.5 C383.97,252.5 933.92,252.5 1082.49,252.5 " fill="none" id="User-to-Login" style="stroke:#181818;stroke-width:1.0;"/><polygon fill="#181818" points="1088.49,252.5,1079.49,248.5,1083.49,252.5,1079.49,256.5,1088.49,252.5" style="stroke:#181818;stroke-width:1.0;"/></g><!--link User to Registar--><g id="link_User_Registar"><path d="M284.57,245.77 C297.88,240.03 317.94,231.88 336,226.5 C406.05,205.65 483.6829,191.0238 533.9929,182.5738 " fill="none" id="User-to-Registar" style="stroke:#181818;stroke-width:1.0;"/><polygon fill="#181818" points="539.91,181.58,530.3718,179.126,534.9791,182.4082,531.6969,187.0155,539.91,181.58" style="stroke:#181818;stroke-width:1.0;"/></g><!--link TryLogin to Login--><g id="link_TryLogin_Login"><path d="M1126,186.22 C1126,204.24 1126,218.45 1126,231.76 " fill="none" id="TryLogin-to-Login" style="stroke:#181818;stroke-width:1.0;"/><polygon fill="#181818" points="1126,237.76,1130,228.76,1126,232.76,1122,228.76,1126,237.76" style="stroke:#181818;stroke-width:1.0;"/><text fill="#000000" font-family="sans-serif" font-size="13" lengthAdjust="spacing" textLength="64" x="1082.5" y="216.5669">&#171;Threats&#187;</text></g><!--reverse link Registar to TryLogin--><g id="link_Registar_TryLogin"><path d="M644.0919,171.5283 C714.2519,167.8783 838.02,161.44 945.94,155.82 " fill="none" id="Registar-backto-TryLogin" style="stroke:#181818;stroke-width:1.0;"/><polygon fill="#181818" points="638.1,171.84,647.2957,175.367,643.0932,171.5802,646.88,167.3778,638.1,171.84" style="stroke:#181818;stroke-width:1.0;"/><text fill="#000000" font-family="sans-serif" font-size="13" lengthAdjust="spacing" textLength="64" x="841" y="154.5669">&#171;Threats&#187;</text></g><!--reverse link TryLogin to Malicioso--><g id="link_TryLogin_Malicioso"><path d="M1317.21,146.5 C1339.44,146.5 1354.44,146.5 1371.98,146.5 " fill="none" id="TryLogin-backto-Malicioso" style="stroke:#181818;stroke-width:1.0;"/><polygon fill="#181818" points="1311.21,146.5,1320.21,150.5,1316.21,146.5,1320.21,142.5,1311.21,146.5" style="stroke:#181818;stroke-width:1.0;"/></g><!--link Sistema to Tentativas--><g id="link_Sistema_Tentativas"><path d="M306,31.39 C325.87,32.97 346.2188,34.5748 374.7888,36.8448 " fill="none" id="Sistema-to-Tentativas" style="stroke:#181818;stroke-width:1.0;"/><polygon fill="#181818" points="380.77,37.32,372.1151,32.6197,375.7857,36.924,371.4815,40.5946,380.77,37.32" style="stroke:#181818;stroke-width:1.0;"/></g><!--link Tentativas to TryLogin--><g id="link_Tentativas_TryLogin"><path d="M755.75,82.67 C828.32,95.22 906.3378,108.6973 975.8278,120.7173 " fill="none" id="Tentativas-to-TryLogin" style="stroke:#181818;stroke-width:1.0;"/><polygon fill="#181818" points="981.74,121.74,973.5535,116.2645,976.8132,120.8878,972.1899,124.1475,981.74,121.74" style="stroke:#181818;stroke-width:1.0;"/><text fill="#000000" font-family="sans-serif" font-size="13" lengthAdjust="spacing" textLength="74" x="836" y="93.5669">&#171;Mitigates&#187;</text></g><!--SRC=[RP4nRiCm34LtdOBmxg5h4HZeaAL8EhJk0LIBSGZOOY3HGHlqDZrABrR9igoao2IA_vDyb0Oy20Y3e_ueOCXX9yHMATq9EtZtw41xg69GBSbdTbOFv4NFKhbcmzPGFAAOmYmycP5iS3fj5lqcasqxZ4MlsCUcXcTZoi6Qh3BYFipkY3sld2KLJCfeqH_Q8xo5GXmJyn87VM6jw-ycRVi8sqz1QxowslEEUhlBlVh_QzppgCbZ5-bst9DDcyQeMeMbFZrNlWJmkL5TDwcoNBEbj6xTL-dUeWtx7FGbs8Svs_78C8t0apW6eHE3GPY41hgaNr5hXppk4JQRzkXGYsyQjI9kwhfCk_KKdEhbzuVXX6uaGP388tGER044HhJiu_m72CyxoSn2Lj2TzS1LNA5TAmfN75o-NQdyr_51hlogn4cwPjsJKAy54wtw0m00]--></g></svg>