<?xml version="1.0" encoding="us-ascii" standalone="no"?><svg xmlns="http://www.w3.org/2000/svg" xmlns:xlink="http://www.w3.org/1999/xlink" contentStyleType="text/css" height="319px" preserveAspectRatio="none" style="width:1467px;height:319px;background:#FFFFFF;" version="1.1" viewBox="0 0 1467 319" width="1467px" zoomAndPan="magnify"><defs/><g><!--entity RegisteredReader--><g id="elem_RegisteredReader"><ellipse cx="881.5" cy="14" fill="#F1F1F1" rx="8" ry="8" style="stroke:#181818;stroke-width:0.5;"/><path d="M881.5,22 L881.5,49 M868.5,30 L894.5,30 M881.5,49 L868.5,64 M881.5,49 L894.5,64 " fill="none" style="stroke:#181818;stroke-width:0.5;"/><text fill="#000000" font-family="sans-serif" font-size="14" lengthAdjust="spacing" textLength="112" x="825.5" y="78.4951">Leitor Registado</text></g><!--entity MaliciousReader--><g id="elem_MaliciousReader"><ellipse cx="298.5" cy="41" fill="#F1F1F1" rx="8" ry="8" style="stroke:#181818;stroke-width:0.5;"/><path d="M298.5,49 L298.5,76 M285.5,57 L311.5,57 M298.5,76 L285.5,91 M298.5,76 L311.5,91 " fill="none" style="stroke:#181818;stroke-width:0.5;"/><text fill="#000000" font-family="sans-serif" font-size="14" lengthAdjust="spacing" textLength="179" x="209" y="105.4951">Leitor Registado Malicioso</text></g><!--entity System--><g id="elem_System"><path d="M6,215 C6,205 39.5,205 39.5,205 C39.5,205 73,205 73,215 L73,240.2969 C73,250.2969 39.5,250.2969 39.5,250.2969 C39.5,250.2969 6,250.2969 6,240.2969 L6,215 " fill="#F1F1F1" style="stroke:#181818;stroke-width:0.5;"/><path d="M6,215 C6,225 39.5,225 39.5,225 C39.5,225 73,225 73,215 " fill="none" style="stroke:#181818;stroke-width:0.5;"/><text fill="#000000" font-family="sans-serif" font-size="14" lengthAdjust="spacing" textLength="47" x="16" y="241.9951">Sistem</text></g><g id="elem_CommentNews"><ellipse cx="1381.7839" cy="109.3568" fill="#F1F1F1" rx="79.7839" ry="18.3568" style="stroke:#181818;stroke-width:0.5;"/><text fill="#000000" font-family="sans-serif" font-size="14" lengthAdjust="spacing" textLength="118" x="1321.0356" y="112.7613">Comentar Not&#237;cia</text></g><g id="elem_AddManyComments"><ellipse cx="881.5071" cy="175.5014" fill="#F1F1F1" rx="280.5071" ry="58.5014" style="stroke:#181818;stroke-width:0.5;"/><text fill="#000000" font-family="sans-serif" font-size="14" lengthAdjust="spacing" textLength="537" x="613.0071" y="178.3481">Adicionar um grande n&#250;mero de coment&#225;rios para causar um denial of service</text></g><g id="elem_ThresholdComments"><ellipse cx="298.3886" cy="175.2777" fill="#F1F1F1" rx="146.8886" ry="31.7777" style="stroke:#181818;stroke-width:0.5;"/><text fill="#000000" font-family="sans-serif" font-size="14" lengthAdjust="spacing" textLength="264" x="166.3886" y="178.1244">Obriga a um treashold de coment&#225;rios</text></g><g id="elem_LimitComments"><ellipse cx="298.7163" cy="278.3433" fill="#F1F1F1" rx="164.7163" ry="35.3433" style="stroke:#181818;stroke-width:0.5;"/><text fill="#000000" font-family="sans-serif" font-size="14" lengthAdjust="spacing" textLength="301" x="148.2163" y="281.1899">Limita o n&#250;mero de coment&#225;rios por minuto</text></g><!--link RegisteredReader to CommentNews--><g id="link_RegisteredReader_CommentNews"><path d="M937.75,50.82 C1029.27,62.93 1206.1319,86.3527 1306.0119,99.5727 " fill="none" id="RegisteredReader-to-CommentNews" style="stroke:#181818;stroke-width:1.0;"/><polygon fill="#181818" points="1311.96,100.36,1303.5627,95.2137,1307.0032,99.7039,1302.513,103.1445,1311.96,100.36" style="stroke:#181818;stroke-width:1.0;"/></g><!--link MaliciousReader to AddManyComments--><g id="link_MaliciousReader_AddManyComments"><path d="M388.06,86.5 C462.55,99.97 566.2056,118.7033 663.0756,136.2033 " fill="none" id="MaliciousReader-to-AddManyComments" style="stroke:#181818;stroke-width:1.0;"/><polygon fill="#181818" points="668.98,137.27,660.8345,131.7337,664.0596,136.3811,659.4123,139.6063,668.98,137.27" style="stroke:#181818;stroke-width:1.0;"/></g><!--link AddManyComments to CommentNews--><g id="link_AddManyComments_CommentNews"><path d="M1118.61,144.24 C1189.33,134.88 1255.5119,126.1174 1306.2019,119.4074 " fill="none" id="AddManyComments-to-CommentNews" style="stroke:#181818;stroke-width:1.0;"/><polygon fill="#181818" points="1312.15,118.62,1302.7029,115.8356,1307.1932,119.2761,1303.7527,123.7665,1312.15,118.62" style="stroke:#181818;stroke-width:1.0;"/><text fill="#000000" font-family="sans-serif" font-size="13" lengthAdjust="spacing" textLength="78" x="1193" y="121.5669">&#171;threatens&#187;</text></g><!--link ThresholdComments to AddManyComments--><g id="link_ThresholdComments_AddManyComments"><path d="M445.74,175.5 C493.05,175.5 541.21,175.5 594.87,175.5 " fill="none" id="ThresholdComments-to-AddManyComments" style="stroke:#181818;stroke-width:1.0;"/><polygon fill="#181818" points="600.87,175.5,591.87,171.5,595.87,175.5,591.87,179.5,600.87,175.5" style="stroke:#181818;stroke-width:1.0;"/><text fill="#000000" font-family="sans-serif" font-size="13" lengthAdjust="spacing" textLength="76" x="494" y="171.5669">&#171;mitigates&#187;</text></g><!--link LimitComments to AddManyComments--><g id="link_LimitComments_AddManyComments"><path d="M426.28,256.02 C496.74,243.53 580.3521,228.7071 661.2621,214.3671 " fill="none" id="LimitComments-to-AddManyComments" style="stroke:#181818;stroke-width:1.0;"/><polygon fill="#181818" points="667.17,213.32,657.6101,210.952,662.2467,214.1926,659.0062,218.8292,667.17,213.32" style="stroke:#181818;stroke-width:1.0;"/><text fill="#000000" font-family="sans-serif" font-size="13" lengthAdjust="spacing" textLength="76" x="494" y="228.5669">&#171;mitigates&#187;</text></g><!--link System to ThresholdComments--><g id="link_System_ThresholdComments"><path d="M73.22,219.99 C82.81,217.84 93.31,215.53 103,213.5 C130.28,207.78 153.8719,203.0333 181.4419,197.6333 " fill="none" id="System-to-ThresholdComments" style="stroke:#181818;stroke-width:1.0;"/><polygon fill="#181818" points="187.33,196.48,177.729,194.2845,182.4232,197.4411,179.2667,202.1353,187.33,196.48" style="stroke:#181818;stroke-width:1.0;"/></g><!--link System to LimitComments--><g id="link_System_LimitComments"><path d="M73.05,233.96 C99.52,239.21 132.7349,245.8016 170.9149,253.3816 " fill="none" id="System-to-LimitComments" style="stroke:#181818;stroke-width:1.0;"/><polygon fill="#181818" points="176.8,254.55,168.7512,248.874,171.8957,253.5763,167.1934,256.7208,176.8,254.55" style="stroke:#181818;stroke-width:1.0;"/></g><!--SRC=[ZL91RW8n3Bpd5HPtFb0X9DGhK0dw0PEOnT9kKZdULZod3-W7UkLZJRAhbiqAgQSuzipOdgIbiu8646uk2ew5h7Bmng3L8B3O4kVpG0r7HHSMW76yaP0x43gIHs3OOSkMGnneuwsF8ykXuWaZmUAOvRe2EbvpQ4mVoPRQS-Z8AmhiWzw-B6E1fMnEx-aZ_a4tBklxXEqxQ0Iz8_2txuuaG0fjKRfzIfe8tb0GBFPnG3loZ2s4CqIITxPKkcoSsw6_ZitkEhsSac48cAagXF4IMbVtA1Al5w5IdOjikMD528zdJ6Psx7iT_2luNvdw4M2vN4zigUmkzNeXKoLg4NY2rKhJ2gZautfjPkiKHgrRQ6dOv95Ifar6_nzb-0W5E_VmhZXrnVm0]--></g></svg>